<?xml version="1.0" encoding="UTF-8" standalone="no"?>
<!DOCTYPE svg PUBLIC "-//W3C//DTD SVG 1.1//EN"
 "http://www.w3.org/Graphics/SVG/1.1/DTD/svg11.dtd">
<!-- Generated by graphviz version 2.43.0 (0)
 -->
<!-- Title: %3 Pages: 1 -->
<svg width="879pt" height="231pt"
 viewBox="0.00 0.00 879.24 231.00" xmlns="http://www.w3.org/2000/svg" xmlns:xlink="http://www.w3.org/1999/xlink">
<g id="graph0" class="graph" transform="scale(1 1) rotate(0) translate(4 227)">
<title>%3</title>
<polygon fill="#3f3f3f" stroke="transparent" points="-4,4 -4,-227 875.24,-227 875.24,4 -4,4"/>
<text text-anchor="middle" x="435.62" y="-9.2" font-family="Times,serif" font-size="16.00" fill="white">Network Map</text>
<!-- R2 -->
<g id="node1" class="node">
<title>R2</title>
<polygon fill="#006699" stroke="#006699" points="217.74,-99 140.74,-99 140.74,-26 217.74,-26 217.74,-99"/>
<text text-anchor="middle" x="179.24" y="-58.8" font-family="Helvetica,sans-Serif" font-size="14.00" fill="white">R2</text>
</g>
<!-- R5 -->
<g id="node4" class="node">
<title>R5</title>
<polygon fill="#006699" stroke="#006699" points="340.74,-223 263.74,-223 263.74,-150 340.74,-150 340.74,-223"/>
<text text-anchor="middle" x="302.24" y="-182.8" font-family="Helvetica,sans-Serif" font-size="14.00" fill="white">R5</text>
</g>
<!-- R2&#45;&#45;R5 -->
<g id="edge3" class="edge">
<title>R2&#45;&#45;R5</title>
<path fill="none" stroke="green" stroke-dasharray="5,2" d="M172.53,-99.18C172.21,-110.48 173.93,-122.49 180.24,-132 198.73,-159.84 235.21,-173.3 263.49,-179.74"/>
<text text-anchor="middle" x="230.24" y="-120.8" font-family="Courier,monospace" font-size="14.00" fill="white"> &#160;&#160;&#160;&#160;&#160;&#160;&#160;&#160;&#160;&#160;&#160;</text>
<text text-anchor="middle" x="234.49" y="-168.54" font-family="Courier,monospace" font-size="14.00" fill="white">Eth 0/0</text>
<text text-anchor="middle" x="143.53" y="-102.98" font-family="Courier,monospace" font-size="14.00" fill="white">Eth 0/1</text>
</g>
<!-- R6 -->
<g id="node6" class="node">
<title>R6</title>
<polygon fill="#006699" stroke="#006699" points="94.74,-223 17.74,-223 17.74,-150 94.74,-150 94.74,-223"/>
<text text-anchor="middle" x="56.24" y="-182.8" font-family="Helvetica,sans-Serif" font-size="14.00" fill="white">R6</text>
</g>
<!-- R2&#45;&#45;R6 -->
<g id="edge4" class="edge">
<title>R2&#45;&#45;R6</title>
<path fill="none" stroke="green" stroke-dasharray="5,2" d="M140.53,-73.41C117.07,-81.38 88.44,-94.99 71.24,-117 63.97,-126.31 60.06,-138.39 58,-149.82"/>
<text text-anchor="middle" x="121.24" y="-120.8" font-family="Courier,monospace" font-size="14.00" fill="white"> &#160;&#160;&#160;&#160;&#160;&#160;&#160;&#160;&#160;&#160;&#160;</text>
<text text-anchor="middle" x="29" y="-138.62" font-family="Courier,monospace" font-size="14.00" fill="white">Eth 0/1</text>
<text text-anchor="middle" x="111.53" y="-62.21" font-family="Courier,monospace" font-size="14.00" fill="white">Eth 0/2</text>
</g>
<!-- SW1 -->
<g id="node7" class="node">
<title>SW1</title>
<polygon fill="#006699" stroke="#006699" points="654.24,-223 564.24,-223 564.24,-150 654.24,-150 654.24,-223"/>
<text text-anchor="middle" x="609.24" y="-182.8" font-family="Helvetica,sans-Serif" font-size="14.00" fill="white">SW1</text>
</g>
<!-- R2&#45;&#45;SW1 -->
<g id="edge2" class="edge">
<title>R2&#45;&#45;SW1</title>
<path fill="none" stroke="green" stroke-dasharray="5,2" d="M218.06,-81.99C237.25,-91.64 260.46,-104.1 280.24,-117 289.26,-122.88 289.42,-127.62 299.24,-132 345.88,-152.8 489.79,-171.76 563.98,-180.47"/>
<text text-anchor="middle" x="349.24" y="-120.8" font-family="Courier,monospace" font-size="14.00" fill="white"> &#160;&#160;&#160;&#160;&#160;&#160;&#160;&#160;&#160;&#160;&#160;</text>
<text text-anchor="middle" x="534.98" y="-169.27" font-family="Courier,monospace" font-size="14.00" fill="white">Eth 0/2</text>
<text text-anchor="middle" x="247.06" y="-70.79" font-family="Courier,monospace" font-size="14.00" fill="white">Eth 0/0</text>
</g>
<!-- R4 -->
<g id="node2" class="node">
<title>R4</title>
<polygon fill="#006699" stroke="#006699" points="524.74,-99 447.74,-99 447.74,-26 524.74,-26 524.74,-99"/>
<text text-anchor="middle" x="486.24" y="-58.8" font-family="Helvetica,sans-Serif" font-size="14.00" fill="white">R4</text>
</g>
<!-- R4&#45;&#45;R5 -->
<g id="edge7" class="edge">
<title>R4&#45;&#45;R5</title>
<path fill="none" stroke="green" stroke-dasharray="5,2" d="M447.41,-98.31C433.88,-109.67 418.32,-121.94 403.24,-132 383.6,-145.11 360.4,-157.59 341.19,-167.2"/>
<text text-anchor="middle" x="472.24" y="-120.8" font-family="Courier,monospace" font-size="14.00" fill="white"> &#160;&#160;&#160;&#160;&#160;&#160;&#160;&#160;&#160;&#160;&#160;</text>
<text text-anchor="middle" x="370.19" y="-156" font-family="Courier,monospace" font-size="14.00" fill="white">Eth 0/1</text>
<text text-anchor="middle" x="418.41" y="-87.11" font-family="Courier,monospace" font-size="14.00" fill="white">Eth 0/1</text>
</g>
<!-- R4&#45;&#45;SW1 -->
<g id="edge6" class="edge">
<title>R4&#45;&#45;SW1</title>
<path fill="none" stroke="green" stroke-dasharray="5,2" d="M515.2,-99.34C524.44,-110.17 534.96,-121.87 545.24,-132 551.33,-138 558.01,-144.07 564.69,-149.87"/>
<text text-anchor="middle" x="595.24" y="-120.8" font-family="Courier,monospace" font-size="14.00" fill="white"> &#160;&#160;&#160;&#160;&#160;&#160;&#160;&#160;&#160;&#160;&#160;</text>
<text text-anchor="middle" x="535.69" y="-138.67" font-family="Courier,monospace" font-size="14.00" fill="white">Eth 0/4</text>
<text text-anchor="middle" x="486.2" y="-103.14" font-family="Courier,monospace" font-size="14.00" fill="white">Eth 0/0</text>
</g>
<!-- R3 -->
<g id="node3" class="node">
<title>R3</title>
<polygon fill="#006699" stroke="#006699" points="709.74,-99 632.74,-99 632.74,-26 709.74,-26 709.74,-99"/>
<text text-anchor="middle" x="671.24" y="-58.8" font-family="Helvetica,sans-Serif" font-size="14.00" fill="white">R3</text>
</g>
<!-- R3&#45;&#45;SW1 -->
<g id="edge5" class="edge">
<title>R3&#45;&#45;SW1</title>
<path fill="none" stroke="green" stroke-dasharray="5,2" d="M662.21,-99.25C658.84,-110.07 654.51,-121.79 649.24,-132 646.16,-137.98 642.42,-143.99 638.48,-149.72"/>
<text text-anchor="middle" x="705.24" y="-120.8" font-family="Courier,monospace" font-size="14.00" fill="white"> &#160;&#160;&#160;&#160;&#160;&#160;&#160;&#160;&#160;&#160;&#160;</text>
<text text-anchor="middle" x="609.48" y="-138.52" font-family="Courier,monospace" font-size="14.00" fill="white">Eth 0/3</text>
<text text-anchor="middle" x="633.21" y="-103.05" font-family="Courier,monospace" font-size="14.00" fill="white">Eth 0/0</text>
</g>
<!-- R1 -->
<g id="node5" class="node">
<title>R1</title>
<polygon fill="#006699" stroke="#006699" points="832.74,-99 755.74,-99 755.74,-26 832.74,-26 832.74,-99"/>
<text text-anchor="middle" x="794.24" y="-58.8" font-family="Helvetica,sans-Serif" font-size="14.00" fill="white">R1</text>
</g>
<!-- R1&#45;&#45;SW1 -->
<g id="edge1" class="edge">
<title>R1&#45;&#45;SW1</title>
<path fill="none" stroke="green" stroke-dasharray="5,2" d="M782.11,-99.35C776.66,-111.06 769.18,-123.28 759.24,-132 729.74,-157.9 686.81,-171.53 654.43,-178.53"/>
<text text-anchor="middle" x="821.24" y="-120.8" font-family="Courier,monospace" font-size="14.00" fill="white"> &#160;&#160;&#160;&#160;&#160;&#160;&#160;&#160;&#160;&#160;&#160;</text>
<text text-anchor="middle" x="683.43" y="-167.33" font-family="Courier,monospace" font-size="14.00" fill="white">Eth 0/1</text>
<text text-anchor="middle" x="753.11" y="-103.15" font-family="Courier,monospace" font-size="14.00" fill="white">Eth 0/0</text>
</g>
</g>
</svg>
